g Mesh1
# Vertex Positions: 20
v 0 0 1.000008
v -64 0 1.000008
v -128 0 1.000008
v -128 32 1.000008
v -128 64 1.000008
v -64 64 1.000008
v 0 64 1.000008
v 0 32 1.000008
v 0 0 -128
v 0 64 -128
v -128 0 -63.5
v -128 0 -128
v -128 32 -128
v -128 64 -128
v -128 64 -63.5
v -64 0 -128
v 0 32 -128
v -64 64 -128
v 0 0 -63.5
v 0 64 -63.5
# Vertex UVs: 44
vt 0.5000046 4.768372E-07
vt -31.49998 4.017493E-07
vt -63.49996 3.266614E-07
vt -63.50023 16
vt -63.5005 32
vt -31.50052 32
vt 0.4994621 32
vt 0.4997334 16
vt 64.50437 -0.2832133
vt 0.00442758 -0.2857157
vt 0.005668359 31.63412
vt 64.50562 31.63663
vt 1.059718 0.2030171
vt -31.17015 0.1750357
vt -63.40001 0.1470543
vt -63.43538 16.12383
vt -63.47076 32.10062
vt -31.24091 32.1286
vt 0.988945 32.15658
vt 1.024332 16.1798
vt 66.1889 0.1690429
vt 34.36496 -1.547931
vt 2.541014 -3.264905
vt 1.568224 12.47663
vt 0.5954332 28.21817
vt 32.41938 29.93514
vt 64.24332 31.65212
vt 65.21611 15.91058
vt 0.5022465 -63.43749
vt -31.44342 -63.39307
vt -63.38908 -63.34865
vt -63.44759 -31.18076
vt -63.5061 0.98713
vt -31.56044 0.9427117
vt 0.3852234 0.8982934
vt 0.4437349 -31.2696
vt 64.50002 0.4999953
vt 32.25001 0.4999958
vt 0 0.4999964
vt 0 32.49998
vt 0 64.49997
vt 32.25 64.49997
vt 64.5 64.49996
vt 64.50001 32.49998
# Vertex Normals: 6
vn 0 0 1
vn 1 2.797383E-09 -4.365046E-10
vn -0.9999261 0.01062034 0.005923109
vn 7.285805E-08 6.953258E-09 -0.9999998
vn 0.01128794 -0.9998838 0.0102434
vn 0 1 0
# Faces: 6
f 8/8/1 7/7/1 6/6/1 5/5/1 4/4/1 3/3/1 2/2/1 1/1/1 
f 10/12/2 7/11/2 1/10/2 9/9/2 
f 4/20/3 5/19/3 15/18/3 14/17/3 13/16/3 12/15/3 11/14/3 3/13/3 
f 13/28/4 14/27/4 18/26/4 10/25/4 17/24/4 9/23/4 16/22/4 12/21/4 
f 19/36/5 1/35/5 2/34/5 3/33/5 11/32/5 12/31/5 16/30/5 9/29/5 
f 18/44/6 14/43/6 15/42/6 5/41/6 6/40/6 7/39/6 20/38/6 10/37/6 


